<mxfile host="app.diagrams.net" agent="Mozilla/5.0 (Windows NT 10.0; Win64; x64) AppleWebKit/537.36 (KHTML, like Gecko) Chrome/129.0.0.0 Safari/537.36" version="24.7.17">
  <diagram name="Page-1" id="sdq5e3i6rUSHNyaIKdqo">
    <mxGraphModel dx="5600" dy="3015" grid="1" gridSize="10" guides="1" tooltips="1" connect="1" arrows="1" fold="1" page="1" pageScale="1" pageWidth="850" pageHeight="1100" math="0" shadow="0">
      <root>
        <mxCell id="0" />
        <mxCell id="1" parent="0" />
        <mxCell id="hMQv4_sGnJ2KG9TJKj9M-1" value="FLOWCHART MANAJEMEN PETSHOP" style="text;html=1;align=center;verticalAlign=middle;resizable=0;points=[];autosize=1;strokeColor=none;fillColor=none;fontSize=16;labelBackgroundColor=none;fontStyle=1;fontColor=#1A1A1A;" parent="1" vertex="1">
          <mxGeometry x="2525" y="50" width="310" height="30" as="geometry" />
        </mxCell>
        <mxCell id="hMQv4_sGnJ2KG9TJKj9M-248" style="edgeStyle=orthogonalEdgeStyle;rounded=0;orthogonalLoop=1;jettySize=auto;html=1;exitX=0.5;exitY=1;exitDx=0;exitDy=0;exitPerimeter=0;entryX=0.5;entryY=0;entryDx=0;entryDy=0;fontFamily=Helvetica;fontSize=12;fontColor=default;labelBackgroundColor=none;strokeColor=#09555B;" parent="1" source="hMQv4_sGnJ2KG9TJKj9M-3" target="hMQv4_sGnJ2KG9TJKj9M-5" edge="1">
          <mxGeometry relative="1" as="geometry" />
        </mxCell>
        <mxCell id="hMQv4_sGnJ2KG9TJKj9M-3" value="&lt;font color=&quot;#000000&quot;&gt;MULAI&lt;/font&gt;" style="strokeWidth=2;html=1;shape=mxgraph.flowchart.terminator;whiteSpace=wrap;align=center;fillColor=#FAD9D5;strokeColor=#D0CEE2;fontStyle=1;labelBackgroundColor=none;fontColor=#1A1A1A;" parent="1" vertex="1">
          <mxGeometry x="2636.82" y="90" width="80" height="30" as="geometry" />
        </mxCell>
        <mxCell id="hMQv4_sGnJ2KG9TJKj9M-4" value="" style="edgeStyle=orthogonalEdgeStyle;rounded=0;orthogonalLoop=1;jettySize=auto;html=1;labelBackgroundColor=none;strokeColor=#09555B;fontColor=default;align=center;" parent="1" source="hMQv4_sGnJ2KG9TJKj9M-5" target="hMQv4_sGnJ2KG9TJKj9M-8" edge="1">
          <mxGeometry relative="1" as="geometry" />
        </mxCell>
        <mxCell id="hMQv4_sGnJ2KG9TJKj9M-5" value="&lt;div&gt;&lt;span style=&quot;font-size: 10px;&quot;&gt;&lt;font color=&quot;#000000&quot;&gt;MANAJEMEN PETSHOP&lt;/font&gt;&lt;/span&gt;&lt;/div&gt;&lt;div&gt;&lt;span style=&quot;font-size: 10px;&quot;&gt;&lt;font color=&quot;#000000&quot;&gt;1.REGISTRASI&lt;/font&gt;&lt;/span&gt;&lt;/div&gt;&lt;div&gt;&lt;span style=&quot;font-size: 10px;&quot;&gt;&lt;font color=&quot;#000000&quot;&gt;2. LOGIN&lt;/font&gt;&lt;/span&gt;&lt;/div&gt;&lt;div&gt;&lt;span style=&quot;font-size: 10px;&quot;&gt;&lt;font style=&quot;&quot; color=&quot;#000000&quot;&gt;3.KELUAR&lt;/font&gt;&lt;/span&gt;&lt;/div&gt;" style="shape=parallelogram;html=1;strokeWidth=2;perimeter=parallelogramPerimeter;whiteSpace=wrap;rounded=1;arcSize=12;size=0.23;align=center;fillColor=#FAD9D5;strokeColor=none;labelBackgroundColor=none;fontColor=#1A1A1A;" parent="1" vertex="1">
          <mxGeometry x="2590" y="150" width="180" height="90" as="geometry" />
        </mxCell>
        <mxCell id="hMQv4_sGnJ2KG9TJKj9M-6" value="" style="edgeStyle=orthogonalEdgeStyle;rounded=0;orthogonalLoop=1;jettySize=auto;html=1;strokeColor=#09555B;fontColor=default;align=center;labelBackgroundColor=none;" parent="1" source="hMQv4_sGnJ2KG9TJKj9M-8" target="hMQv4_sGnJ2KG9TJKj9M-11" edge="1">
          <mxGeometry relative="1" as="geometry" />
        </mxCell>
        <mxCell id="hMQv4_sGnJ2KG9TJKj9M-7" value="" style="edgeStyle=orthogonalEdgeStyle;rounded=0;orthogonalLoop=1;jettySize=auto;html=1;strokeColor=#09555B;fontColor=default;align=center;labelBackgroundColor=none;" parent="1" source="hMQv4_sGnJ2KG9TJKj9M-8" target="hMQv4_sGnJ2KG9TJKj9M-13" edge="1">
          <mxGeometry relative="1" as="geometry" />
        </mxCell>
        <mxCell id="hMQv4_sGnJ2KG9TJKj9M-8" value="&lt;font color=&quot;#000000&quot;&gt;pilih1=1&lt;/font&gt;" style="strokeWidth=2;html=1;shape=mxgraph.flowchart.decision;whiteSpace=wrap;labelBackgroundColor=none;fillColor=#FAD9D5;strokeColor=#D0CEE2;fontColor=#1A1A1A;align=center;" parent="1" vertex="1">
          <mxGeometry x="2636.8199999999997" y="258" width="106.37" height="60" as="geometry" />
        </mxCell>
        <mxCell id="hMQv4_sGnJ2KG9TJKj9M-9" value="" style="edgeStyle=orthogonalEdgeStyle;rounded=0;orthogonalLoop=1;jettySize=auto;html=1;strokeColor=#09555B;fontColor=default;align=center;labelBackgroundColor=none;" parent="1" source="hMQv4_sGnJ2KG9TJKj9M-11" edge="1">
          <mxGeometry relative="1" as="geometry">
            <mxPoint x="1820" y="500" as="targetPoint" />
          </mxGeometry>
        </mxCell>
        <mxCell id="hMQv4_sGnJ2KG9TJKj9M-11" value="pilih1=2" style="strokeWidth=2;html=1;shape=mxgraph.flowchart.decision;whiteSpace=wrap;labelBackgroundColor=none;fillColor=#FAD9D5;strokeColor=#D0CEE2;fontColor=#1A1A1A;align=center;" parent="1" vertex="1">
          <mxGeometry x="2280" y="320" width="106.37" height="60" as="geometry" />
        </mxCell>
        <mxCell id="hMQv4_sGnJ2KG9TJKj9M-12" value="" style="edgeStyle=orthogonalEdgeStyle;rounded=0;orthogonalLoop=1;jettySize=auto;html=1;strokeColor=#09555B;fontColor=default;labelBackgroundColor=none;" parent="1" source="hMQv4_sGnJ2KG9TJKj9M-13" target="hMQv4_sGnJ2KG9TJKj9M-16" edge="1">
          <mxGeometry relative="1" as="geometry" />
        </mxCell>
        <mxCell id="hMQv4_sGnJ2KG9TJKj9M-13" value="&lt;font color=&quot;#000000&quot; style=&quot;font-size: 11px;&quot;&gt;Input = newusername&lt;/font&gt;&lt;div style=&quot;font-size: 11px;&quot;&gt;&lt;font color=&quot;#000000&quot; style=&quot;font-size: 11px;&quot;&gt;Input = newpassword&lt;/font&gt;&lt;/div&gt;&lt;div style=&quot;font-size: 11px;&quot;&gt;&lt;br&gt;&lt;/div&gt;" style="shape=parallelogram;perimeter=parallelogramPerimeter;whiteSpace=wrap;html=1;fixedSize=1;fillColor=#FAD9D5;strokeColor=#D0CEE2;fontColor=#1A1A1A;strokeWidth=2;labelBackgroundColor=none;align=center;" parent="1" vertex="1">
          <mxGeometry x="2835" y="258" width="143.63" height="60" as="geometry" />
        </mxCell>
        <mxCell id="hMQv4_sGnJ2KG9TJKj9M-14" value="" style="edgeStyle=orthogonalEdgeStyle;rounded=0;orthogonalLoop=1;jettySize=auto;html=1;strokeColor=#09555B;fontColor=default;labelBackgroundColor=none;" parent="1" source="hMQv4_sGnJ2KG9TJKj9M-16" target="hMQv4_sGnJ2KG9TJKj9M-19" edge="1">
          <mxGeometry relative="1" as="geometry" />
        </mxCell>
        <mxCell id="hMQv4_sGnJ2KG9TJKj9M-15" value="" style="edgeStyle=orthogonalEdgeStyle;rounded=0;orthogonalLoop=1;jettySize=auto;html=1;strokeColor=#09555B;fontColor=default;labelBackgroundColor=none;" parent="1" source="hMQv4_sGnJ2KG9TJKj9M-16" target="hMQv4_sGnJ2KG9TJKj9M-24" edge="1">
          <mxGeometry relative="1" as="geometry" />
        </mxCell>
        <mxCell id="hMQv4_sGnJ2KG9TJKj9M-16" value="&lt;font color=&quot;#000000&quot;&gt;if newusername in users :&lt;/font&gt;" style="rhombus;whiteSpace=wrap;html=1;fillColor=#FAD9D5;strokeColor=#D0CEE2;fontColor=#1A1A1A;strokeWidth=2;labelBackgroundColor=none;" parent="1" vertex="1">
          <mxGeometry x="2762.34" y="410" width="288.95" height="100" as="geometry" />
        </mxCell>
        <mxCell id="hMQv4_sGnJ2KG9TJKj9M-17" value="true" style="text;html=1;align=center;verticalAlign=middle;resizable=0;points=[];autosize=1;strokeColor=none;fillColor=none;fontColor=#1A1A1A;labelBackgroundColor=none;" parent="1" vertex="1">
          <mxGeometry x="2760" y="238" width="40" height="30" as="geometry" />
        </mxCell>
        <mxCell id="hMQv4_sGnJ2KG9TJKj9M-18" value="false" style="text;html=1;align=center;verticalAlign=middle;resizable=0;points=[];autosize=1;strokeColor=none;fillColor=none;fontColor=#1A1A1A;labelBackgroundColor=none;" parent="1" vertex="1">
          <mxGeometry x="2565" y="240" width="50" height="30" as="geometry" />
        </mxCell>
        <mxCell id="hMQv4_sGnJ2KG9TJKj9M-199" value="" style="edgeStyle=orthogonalEdgeStyle;rounded=0;orthogonalLoop=1;jettySize=auto;html=1;entryX=0.015;entryY=0.909;entryDx=0;entryDy=0;entryPerimeter=0;labelBackgroundColor=none;strokeColor=#09555B;fontColor=default;" parent="1" source="hMQv4_sGnJ2KG9TJKj9M-19" target="hMQv4_sGnJ2KG9TJKj9M-13" edge="1">
          <mxGeometry relative="1" as="geometry">
            <mxPoint x="2830" y="312" as="targetPoint" />
            <Array as="points">
              <mxPoint x="2623" y="390" />
              <mxPoint x="2720" y="390" />
              <mxPoint x="2720" y="313" />
            </Array>
          </mxGeometry>
        </mxCell>
        <mxCell id="hMQv4_sGnJ2KG9TJKj9M-19" value="&lt;font color=&quot;#000000&quot;&gt;Output &quot;Username sudah ada. Coba lagi.&quot;&lt;/font&gt;" style="shape=parallelogram;perimeter=parallelogramPerimeter;whiteSpace=wrap;html=1;fixedSize=1;fillColor=#FAD9D5;strokeColor=#D0CEE2;fontColor=#1A1A1A;strokeWidth=2;labelBackgroundColor=none;" parent="1" vertex="1">
          <mxGeometry x="2543.05" y="420" width="160" height="80" as="geometry" />
        </mxCell>
        <mxCell id="hMQv4_sGnJ2KG9TJKj9M-21" style="edgeStyle=orthogonalEdgeStyle;rounded=0;orthogonalLoop=1;jettySize=auto;html=1;labelBackgroundColor=none;strokeColor=#09555B;fontColor=default;" parent="1" source="hMQv4_sGnJ2KG9TJKj9M-131" edge="1">
          <mxGeometry relative="1" as="geometry">
            <mxPoint x="4381" y="550" as="targetPoint" />
          </mxGeometry>
        </mxCell>
        <mxCell id="hMQv4_sGnJ2KG9TJKj9M-23" style="edgeStyle=orthogonalEdgeStyle;rounded=0;orthogonalLoop=1;jettySize=auto;html=1;exitX=1;exitY=0.25;exitDx=0;exitDy=0;entryX=0;entryY=0.5;entryDx=0;entryDy=0;labelBackgroundColor=none;strokeColor=#09555B;fontColor=default;" parent="1" source="hMQv4_sGnJ2KG9TJKj9M-24" target="hMQv4_sGnJ2KG9TJKj9M-119" edge="1">
          <mxGeometry relative="1" as="geometry" />
        </mxCell>
        <mxCell id="hMQv4_sGnJ2KG9TJKj9M-24" value="Output &quot;Registrasi berhasil untuk pengguna baru!&quot;" style="shape=parallelogram;perimeter=parallelogramPerimeter;whiteSpace=wrap;html=1;fixedSize=1;fillColor=#FAD9D5;strokeColor=#D0CEE2;fontColor=#1A1A1A;strokeWidth=2;labelBackgroundColor=none;" parent="1" vertex="1">
          <mxGeometry x="3150" y="425" width="170" height="70" as="geometry" />
        </mxCell>
        <mxCell id="hMQv4_sGnJ2KG9TJKj9M-25" value="False" style="text;html=1;align=center;verticalAlign=middle;resizable=0;points=[];autosize=1;strokeColor=none;fillColor=none;fontColor=#1A1A1A;labelBackgroundColor=none;" parent="1" vertex="1">
          <mxGeometry x="2711.05" y="430" width="50" height="30" as="geometry" />
        </mxCell>
        <mxCell id="hMQv4_sGnJ2KG9TJKj9M-26" value="True" style="text;html=1;align=center;verticalAlign=middle;resizable=0;points=[];autosize=1;strokeColor=none;fillColor=none;fontColor=#1A1A1A;labelBackgroundColor=none;" parent="1" vertex="1">
          <mxGeometry x="3083" y="428" width="50" height="30" as="geometry" />
        </mxCell>
        <mxCell id="hMQv4_sGnJ2KG9TJKj9M-27" value="" style="edgeStyle=orthogonalEdgeStyle;rounded=0;orthogonalLoop=1;jettySize=auto;html=1;strokeColor=#09555B;fontColor=default;labelBackgroundColor=none;" parent="1" source="hMQv4_sGnJ2KG9TJKj9M-30" target="hMQv4_sGnJ2KG9TJKj9M-35" edge="1">
          <mxGeometry relative="1" as="geometry" />
        </mxCell>
        <mxCell id="hMQv4_sGnJ2KG9TJKj9M-28" value="" style="edgeLabel;html=1;align=center;verticalAlign=middle;resizable=0;points=[];strokeColor=#D0CEE2;fontColor=#1A1A1A;fillColor=#FAD9D5;labelBackgroundColor=none;" parent="hMQv4_sGnJ2KG9TJKj9M-27" vertex="1" connectable="0">
          <mxGeometry x="-0.0011" y="-1" relative="1" as="geometry">
            <mxPoint as="offset" />
          </mxGeometry>
        </mxCell>
        <mxCell id="hMQv4_sGnJ2KG9TJKj9M-29" value="" style="edgeLabel;html=1;align=center;verticalAlign=middle;resizable=0;points=[];strokeColor=#D0CEE2;fontColor=#1A1A1A;fillColor=#FAD9D5;labelBackgroundColor=none;" parent="hMQv4_sGnJ2KG9TJKj9M-27" vertex="1" connectable="0">
          <mxGeometry x="-0.0381" relative="1" as="geometry">
            <mxPoint as="offset" />
          </mxGeometry>
        </mxCell>
        <mxCell id="hMQv4_sGnJ2KG9TJKj9M-30" value="&lt;font color=&quot;#000000&quot;&gt;Input = Username&lt;/font&gt;&lt;div&gt;&lt;font color=&quot;#000000&quot;&gt;Input = Password&lt;/font&gt;&lt;/div&gt;" style="shape=parallelogram;perimeter=parallelogramPerimeter;whiteSpace=wrap;html=1;fixedSize=1;fillColor=#FAD9D5;strokeColor=#D0CEE2;fontColor=#1A1A1A;strokeWidth=2;labelBackgroundColor=none;" parent="1" vertex="1">
          <mxGeometry x="2376.25" y="550" width="130" height="60" as="geometry" />
        </mxCell>
        <mxCell id="hMQv4_sGnJ2KG9TJKj9M-31" value="True" style="text;html=1;align=center;verticalAlign=middle;resizable=0;points=[];autosize=1;strokeColor=none;fillColor=none;fontColor=#1A1A1A;labelBackgroundColor=none;" parent="1" vertex="1">
          <mxGeometry x="2416.25" y="318" width="50" height="30" as="geometry" />
        </mxCell>
        <mxCell id="hMQv4_sGnJ2KG9TJKj9M-32" value="False" style="text;html=1;align=center;verticalAlign=middle;resizable=0;points=[];autosize=1;strokeColor=none;fillColor=none;fontColor=#1A1A1A;labelBackgroundColor=none;" parent="1" vertex="1">
          <mxGeometry x="2195" y="318" width="50" height="30" as="geometry" />
        </mxCell>
        <mxCell id="hMQv4_sGnJ2KG9TJKj9M-33" value="" style="edgeStyle=orthogonalEdgeStyle;rounded=0;orthogonalLoop=1;jettySize=auto;html=1;strokeColor=#09555B;fontColor=default;entryX=0.553;entryY=0;entryDx=0;entryDy=0;entryPerimeter=0;labelBackgroundColor=none;" parent="1" source="hMQv4_sGnJ2KG9TJKj9M-35" target="hMQv4_sGnJ2KG9TJKj9M-42" edge="1">
          <mxGeometry relative="1" as="geometry">
            <mxPoint x="2650" y="784.9999999999998" as="targetPoint" />
          </mxGeometry>
        </mxCell>
        <mxCell id="hMQv4_sGnJ2KG9TJKj9M-34" value="" style="edgeStyle=orthogonalEdgeStyle;rounded=0;orthogonalLoop=1;jettySize=auto;html=1;strokeColor=#09555B;fontColor=default;labelBackgroundColor=none;" parent="1" source="hMQv4_sGnJ2KG9TJKj9M-35" target="hMQv4_sGnJ2KG9TJKj9M-39" edge="1">
          <mxGeometry relative="1" as="geometry" />
        </mxCell>
        <mxCell id="hMQv4_sGnJ2KG9TJKj9M-35" value="&lt;font color=&quot;#000000&quot;&gt;if username == bilaw&amp;nbsp;&lt;/font&gt;&lt;div&gt;&lt;font color=&quot;#000000&quot;&gt;password == bilaw123&lt;/font&gt;&lt;/div&gt;" style="rhombus;whiteSpace=wrap;html=1;fillColor=#FAD9D5;strokeColor=#D0CEE2;fontColor=#1A1A1A;strokeWidth=2;labelBackgroundColor=none;" parent="1" vertex="1">
          <mxGeometry x="2342.5" y="730" width="197.5" height="110" as="geometry" />
        </mxCell>
        <mxCell id="hMQv4_sGnJ2KG9TJKj9M-38" value="True" style="text;html=1;align=center;verticalAlign=middle;resizable=0;points=[];autosize=1;strokeColor=none;fillColor=none;fontColor=#1A1A1A;labelBackgroundColor=none;" parent="1" vertex="1">
          <mxGeometry x="2580" y="755" width="50" height="30" as="geometry" />
        </mxCell>
        <mxCell id="hMQv4_sGnJ2KG9TJKj9M-39" value="Output &quot;Username atau password salah.&lt;div&gt;&amp;nbsp;Coba lagi.&quot;&lt;/div&gt;" style="shape=parallelogram;perimeter=parallelogramPerimeter;whiteSpace=wrap;html=1;fixedSize=1;fillColor=#FAD9D5;strokeColor=#D0CEE2;fontColor=#1A1A1A;strokeWidth=2;labelBackgroundColor=none;" parent="1" vertex="1">
          <mxGeometry x="2090" y="747.5" width="167.5" height="75" as="geometry" />
        </mxCell>
        <mxCell id="hMQv4_sGnJ2KG9TJKj9M-40" value="" style="endArrow=classic;html=1;rounded=0;strokeColor=#09555B;fontColor=default;exitX=0.537;exitY=-0.037;exitDx=0;exitDy=0;exitPerimeter=0;entryX=0;entryY=0.5;entryDx=0;entryDy=0;labelBackgroundColor=none;" parent="1" source="hMQv4_sGnJ2KG9TJKj9M-39" target="hMQv4_sGnJ2KG9TJKj9M-30" edge="1">
          <mxGeometry width="50" height="50" relative="1" as="geometry">
            <mxPoint x="2370" y="670" as="sourcePoint" />
            <mxPoint x="2420" y="620" as="targetPoint" />
            <Array as="points">
              <mxPoint x="2180" y="580" />
            </Array>
          </mxGeometry>
        </mxCell>
        <mxCell id="hMQv4_sGnJ2KG9TJKj9M-208" value="" style="edgeStyle=orthogonalEdgeStyle;rounded=0;orthogonalLoop=1;jettySize=auto;html=1;labelBackgroundColor=none;strokeColor=#09555B;fontColor=default;" parent="1" source="hMQv4_sGnJ2KG9TJKj9M-42" target="hMQv4_sGnJ2KG9TJKj9M-46" edge="1">
          <mxGeometry relative="1" as="geometry" />
        </mxCell>
        <mxCell id="hMQv4_sGnJ2KG9TJKj9M-42" value="&lt;font color=&quot;#000000&quot;&gt;Output &quot;Berhasil masuk sebagai bilaw&quot;&lt;/font&gt;" style="shape=parallelogram;perimeter=parallelogramPerimeter;whiteSpace=wrap;html=1;fixedSize=1;fillColor=#FAD9D5;strokeColor=#D0CEE2;fontColor=#1A1A1A;strokeWidth=2;labelBackgroundColor=none;" parent="1" vertex="1">
          <mxGeometry x="2618.75" y="837" width="205" height="73" as="geometry" />
        </mxCell>
        <mxCell id="hMQv4_sGnJ2KG9TJKj9M-45" value="" style="edgeStyle=orthogonalEdgeStyle;rounded=0;orthogonalLoop=1;jettySize=auto;html=1;strokeColor=#09555B;fontColor=default;labelBackgroundColor=none;" parent="1" source="hMQv4_sGnJ2KG9TJKj9M-46" target="hMQv4_sGnJ2KG9TJKj9M-48" edge="1">
          <mxGeometry relative="1" as="geometry" />
        </mxCell>
        <mxCell id="hMQv4_sGnJ2KG9TJKj9M-46" value="&lt;font color=&quot;#000000&quot; face=&quot;Verdana&quot;&gt;MENU ADMIN PETSHOP&lt;/font&gt;&lt;div&gt;&lt;font color=&quot;#000000&quot; face=&quot;Verdana&quot;&gt;1. TAMBAH HEWAN&lt;/font&gt;&lt;/div&gt;&lt;div&gt;&lt;font color=&quot;#000000&quot; face=&quot;Verdana&quot;&gt;2. TAMPILKAN HEWAN&lt;/font&gt;&lt;/div&gt;&lt;div&gt;&lt;font color=&quot;#000000&quot; face=&quot;Verdana&quot;&gt;3.UBAH HEWAN&lt;/font&gt;&lt;/div&gt;&lt;div&gt;&lt;font color=&quot;#000000&quot; face=&quot;Verdana&quot;&gt;4. HAPUS HEWAN&lt;/font&gt;&lt;/div&gt;&lt;div&gt;&lt;font color=&quot;#000000&quot; face=&quot;Verdana&quot;&gt;5. LOGOUT&lt;/font&gt;&lt;/div&gt;" style="shape=parallelogram;perimeter=parallelogramPerimeter;whiteSpace=wrap;html=1;fixedSize=1;fillColor=#FAD9D5;strokeColor=#D0CEE2;fontColor=#1A1A1A;strokeWidth=2;labelBackgroundColor=none;align=center;" parent="1" vertex="1">
          <mxGeometry x="2631.25" y="939.9999999999999" width="180" height="109.37" as="geometry" />
        </mxCell>
        <mxCell id="hMQv4_sGnJ2KG9TJKj9M-47" value="" style="edgeStyle=orthogonalEdgeStyle;rounded=0;orthogonalLoop=1;jettySize=auto;html=1;strokeColor=#09555B;fontColor=default;labelBackgroundColor=none;" parent="1" edge="1">
          <mxGeometry relative="1" as="geometry">
            <mxPoint x="2760.001666666667" y="1120" as="sourcePoint" />
            <mxPoint x="2960.75" y="1190" as="targetPoint" />
            <Array as="points">
              <mxPoint x="2960.75" y="1120" />
            </Array>
          </mxGeometry>
        </mxCell>
        <mxCell id="hMQv4_sGnJ2KG9TJKj9M-48" value="&lt;font color=&quot;#000000&quot;&gt;pilihan = 1/2/3/4/5&lt;/font&gt;" style="shape=parallelogram;perimeter=parallelogramPerimeter;whiteSpace=wrap;html=1;fixedSize=1;fillColor=#FAD9D5;strokeColor=#D0CEE2;fontColor=#1A1A1A;strokeWidth=2;labelBackgroundColor=none;" parent="1" vertex="1">
          <mxGeometry x="2661.25" y="1084.0049999999999" width="120" height="60" as="geometry" />
        </mxCell>
        <mxCell id="hMQv4_sGnJ2KG9TJKj9M-49" value="" style="edgeStyle=orthogonalEdgeStyle;rounded=0;orthogonalLoop=1;jettySize=auto;html=1;strokeColor=#09555B;fontColor=default;exitX=0.915;exitY=0.473;exitDx=0;exitDy=0;exitPerimeter=0;labelBackgroundColor=none;" parent="1" edge="1">
          <mxGeometry relative="1" as="geometry">
            <mxPoint x="3036.4" y="1228.8400000000001" as="sourcePoint" />
            <Array as="points">
              <mxPoint x="3036" y="1231" />
              <mxPoint x="3125" y="1231" />
              <mxPoint x="3125" y="1280" />
            </Array>
            <mxPoint x="3125" y="1290" as="targetPoint" />
          </mxGeometry>
        </mxCell>
        <mxCell id="hMQv4_sGnJ2KG9TJKj9M-50" value="" style="edgeStyle=orthogonalEdgeStyle;rounded=0;orthogonalLoop=1;jettySize=auto;html=1;strokeColor=#09555B;fontColor=default;labelBackgroundColor=none;" parent="1" source="hMQv4_sGnJ2KG9TJKj9M-51" target="hMQv4_sGnJ2KG9TJKj9M-53" edge="1">
          <mxGeometry relative="1" as="geometry" />
        </mxCell>
        <mxCell id="hMQv4_sGnJ2KG9TJKj9M-51" value="&lt;font color=&quot;#000000&quot;&gt;pilihan == 1&lt;/font&gt;" style="rhombus;whiteSpace=wrap;html=1;fillColor=#FAD9D5;strokeColor=#D0CEE2;fontColor=#1A1A1A;strokeWidth=2;labelBackgroundColor=none;" parent="1" vertex="1">
          <mxGeometry x="2880" y="1190" width="160" height="80" as="geometry" />
        </mxCell>
        <mxCell id="hMQv4_sGnJ2KG9TJKj9M-52" value="&lt;font color=&quot;#000000&quot;&gt;Input =&lt;/font&gt;&lt;div&gt;&lt;font color=&quot;#000000&quot;&gt;id_hewan&lt;/font&gt;&lt;/div&gt;" style="shape=parallelogram;perimeter=parallelogramPerimeter;whiteSpace=wrap;html=1;fixedSize=1;fillColor=#FAD9D5;strokeColor=#D0CEE2;fontColor=#1A1A1A;strokeWidth=2;labelBackgroundColor=none;" parent="1" vertex="1">
          <mxGeometry x="3060" y="1391.02" width="130" height="70" as="geometry" />
        </mxCell>
        <mxCell id="hMQv4_sGnJ2KG9TJKj9M-53" value="pilihan == 2" style="rhombus;whiteSpace=wrap;html=1;fillColor=#FAD9D5;strokeColor=#D0CEE2;fontColor=#1A1A1A;strokeWidth=2;labelBackgroundColor=none;" parent="1" vertex="1">
          <mxGeometry x="2640" y="1290" width="160" height="80" as="geometry" />
        </mxCell>
        <mxCell id="hMQv4_sGnJ2KG9TJKj9M-54" value="True" style="text;html=1;align=center;verticalAlign=middle;resizable=0;points=[];autosize=1;strokeColor=none;fillColor=none;fontColor=#1A1A1A;labelBackgroundColor=none;" parent="1" vertex="1">
          <mxGeometry x="3055" y="1198" width="50" height="30" as="geometry" />
        </mxCell>
        <mxCell id="hMQv4_sGnJ2KG9TJKj9M-55" value="False" style="text;html=1;align=center;verticalAlign=middle;resizable=0;points=[];autosize=1;strokeColor=none;fillColor=none;fontColor=#1A1A1A;labelBackgroundColor=none;" parent="1" vertex="1">
          <mxGeometry x="2795" y="1198" width="50" height="30" as="geometry" />
        </mxCell>
        <mxCell id="hMQv4_sGnJ2KG9TJKj9M-56" value="pilih1 = 3" style="strokeWidth=2;html=1;shape=mxgraph.flowchart.decision;whiteSpace=wrap;labelBackgroundColor=none;fillColor=#FAD9D5;strokeColor=#D0CEE2;fontColor=#1A1A1A;align=center;" parent="1" vertex="1">
          <mxGeometry x="1768" y="502" width="106.37" height="60" as="geometry" />
        </mxCell>
        <mxCell id="hMQv4_sGnJ2KG9TJKj9M-57" value="" style="endArrow=classic;html=1;rounded=0;labelBackgroundColor=none;strokeColor=#09555B;fontColor=default;" parent="1" edge="1">
          <mxGeometry width="50" height="50" relative="1" as="geometry">
            <mxPoint x="3125" y="1562" as="sourcePoint" />
            <mxPoint x="3125" y="1592" as="targetPoint" />
          </mxGeometry>
        </mxCell>
        <mxCell id="hMQv4_sGnJ2KG9TJKj9M-58" value="&lt;font color=&quot;#000000&quot;&gt;Input =&amp;nbsp;&lt;/font&gt;&lt;div&gt;&lt;font color=&quot;#000000&quot;&gt;nama_hewan&lt;/font&gt;&lt;div&gt;&lt;font color=&quot;#000000&quot;&gt;&lt;br&gt;&lt;/font&gt;&lt;/div&gt;&lt;/div&gt;" style="shape=parallelogram;perimeter=parallelogramPerimeter;whiteSpace=wrap;html=1;fixedSize=1;fillColor=#FAD9D5;strokeColor=#D0CEE2;fontColor=#1A1A1A;strokeWidth=2;labelBackgroundColor=none;align=center;" parent="1" vertex="1">
          <mxGeometry x="3060" y="1592" width="130" height="70" as="geometry" />
        </mxCell>
        <mxCell id="hMQv4_sGnJ2KG9TJKj9M-59" value="&lt;font color=&quot;#000000&quot;&gt;Input =&lt;/font&gt;&lt;div&gt;&lt;font color=&quot;#000000&quot;&gt;jenis_hewan&lt;/font&gt;&lt;/div&gt;" style="shape=parallelogram;perimeter=parallelogramPerimeter;whiteSpace=wrap;html=1;fixedSize=1;fillColor=#FAD9D5;strokeColor=#D0CEE2;fontColor=#1A1A1A;strokeWidth=2;labelBackgroundColor=none;align=center;" parent="1" vertex="1">
          <mxGeometry x="3060" y="1793" width="130" height="57" as="geometry" />
        </mxCell>
        <mxCell id="hMQv4_sGnJ2KG9TJKj9M-60" value="" style="endArrow=classic;html=1;rounded=0;labelBackgroundColor=none;strokeColor=#09555B;fontColor=default;" parent="1" edge="1">
          <mxGeometry width="50" height="50" relative="1" as="geometry">
            <mxPoint x="3125" y="1762" as="sourcePoint" />
            <mxPoint x="3125" y="1792" as="targetPoint" />
          </mxGeometry>
        </mxCell>
        <mxCell id="hMQv4_sGnJ2KG9TJKj9M-61" value="" style="endArrow=classic;html=1;rounded=0;exitX=0.5;exitY=1;exitDx=0;exitDy=0;labelBackgroundColor=none;strokeColor=#09555B;fontColor=default;" parent="1" source="hMQv4_sGnJ2KG9TJKj9M-59" edge="1">
          <mxGeometry width="50" height="50" relative="1" as="geometry">
            <mxPoint x="3125" y="1863" as="sourcePoint" />
            <mxPoint x="3125" y="1893" as="targetPoint" />
          </mxGeometry>
        </mxCell>
        <mxCell id="hMQv4_sGnJ2KG9TJKj9M-62" value="" style="edgeStyle=orthogonalEdgeStyle;rounded=0;orthogonalLoop=1;jettySize=auto;html=1;strokeColor=#09555B;fontColor=default;labelBackgroundColor=none;" parent="1" edge="1">
          <mxGeometry relative="1" as="geometry">
            <mxPoint x="2643" y="1329" as="sourcePoint" />
            <mxPoint x="2473" y="1389" as="targetPoint" />
          </mxGeometry>
        </mxCell>
        <mxCell id="hMQv4_sGnJ2KG9TJKj9M-63" value="" style="edgeStyle=orthogonalEdgeStyle;rounded=0;orthogonalLoop=1;jettySize=auto;html=1;strokeColor=#09555B;fontColor=default;exitX=0.915;exitY=0.473;exitDx=0;exitDy=0;exitPerimeter=0;labelBackgroundColor=none;" parent="1" edge="1">
          <mxGeometry relative="1" as="geometry">
            <mxPoint x="2801" y="1327" as="sourcePoint" />
            <Array as="points">
              <mxPoint x="2801" y="1329" />
              <mxPoint x="2890" y="1329" />
            </Array>
            <mxPoint x="2890" y="1349" as="targetPoint" />
          </mxGeometry>
        </mxCell>
        <mxCell id="hMQv4_sGnJ2KG9TJKj9M-64" value="False" style="text;html=1;align=center;verticalAlign=middle;resizable=0;points=[];autosize=1;strokeColor=none;fillColor=none;fontColor=#1A1A1A;labelBackgroundColor=none;" parent="1" vertex="1">
          <mxGeometry x="2540" y="1300" width="50" height="30" as="geometry" />
        </mxCell>
        <mxCell id="hMQv4_sGnJ2KG9TJKj9M-65" value="True" style="text;html=1;align=center;verticalAlign=middle;resizable=0;points=[];autosize=1;strokeColor=none;fillColor=none;fontColor=#1A1A1A;labelBackgroundColor=none;" parent="1" vertex="1">
          <mxGeometry x="2820" y="1300" width="50" height="30" as="geometry" />
        </mxCell>
        <mxCell id="hMQv4_sGnJ2KG9TJKj9M-66" value="pilihan == 3" style="rhombus;whiteSpace=wrap;html=1;fillColor=#FAD9D5;strokeColor=#D0CEE2;fontColor=#1A1A1A;strokeWidth=2;labelBackgroundColor=none;" parent="1" vertex="1">
          <mxGeometry x="2393" y="1390" width="160" height="80" as="geometry" />
        </mxCell>
        <mxCell id="hMQv4_sGnJ2KG9TJKj9M-68" value="&amp;nbsp; &amp;nbsp;Output &quot;Tampilkan Nama,&lt;div&gt;Jenis,&lt;span style=&quot;background-color: initial;&quot;&gt;dan Umur&quot;&lt;/span&gt;&lt;div&gt;&lt;div&gt;&lt;br&gt;&lt;/div&gt;&lt;/div&gt;&lt;/div&gt;" style="shape=parallelogram;perimeter=parallelogramPerimeter;whiteSpace=wrap;html=1;fixedSize=1;fillColor=#FAD9D5;strokeColor=#D0CEE2;fontColor=#1A1A1A;strokeWidth=2;labelBackgroundColor=none;align=center;" parent="1" vertex="1">
          <mxGeometry x="2790" y="1350" width="190" height="90" as="geometry" />
        </mxCell>
        <mxCell id="hMQv4_sGnJ2KG9TJKj9M-69" value="" style="edgeStyle=orthogonalEdgeStyle;rounded=0;orthogonalLoop=1;jettySize=auto;html=1;strokeColor=#09555B;fontColor=default;exitX=0.915;exitY=0.473;exitDx=0;exitDy=0;exitPerimeter=0;labelBackgroundColor=none;" parent="1" edge="1">
          <mxGeometry relative="1" as="geometry">
            <mxPoint x="2553" y="1428" as="sourcePoint" />
            <Array as="points">
              <mxPoint x="2553" y="1430" />
              <mxPoint x="2642" y="1430" />
            </Array>
            <mxPoint x="2642" y="1450" as="targetPoint" />
          </mxGeometry>
        </mxCell>
        <mxCell id="hMQv4_sGnJ2KG9TJKj9M-70" value="" style="edgeStyle=orthogonalEdgeStyle;rounded=0;orthogonalLoop=1;jettySize=auto;html=1;strokeColor=#09555B;fontColor=default;labelBackgroundColor=none;" parent="1" edge="1">
          <mxGeometry relative="1" as="geometry">
            <mxPoint x="2393" y="1430" as="sourcePoint" />
            <mxPoint x="2223" y="1490" as="targetPoint" />
          </mxGeometry>
        </mxCell>
        <mxCell id="hMQv4_sGnJ2KG9TJKj9M-71" value="True" style="text;html=1;align=center;verticalAlign=middle;resizable=0;points=[];autosize=1;strokeColor=none;fillColor=none;fontColor=#1A1A1A;labelBackgroundColor=none;" parent="1" vertex="1">
          <mxGeometry x="2573.19" y="1400" width="50" height="30" as="geometry" />
        </mxCell>
        <mxCell id="hMQv4_sGnJ2KG9TJKj9M-72" value="False" style="text;html=1;align=center;verticalAlign=middle;resizable=0;points=[];autosize=1;strokeColor=none;fillColor=none;fontColor=#1A1A1A;labelBackgroundColor=none;" parent="1" vertex="1">
          <mxGeometry x="2290" y="1400" width="50" height="30" as="geometry" />
        </mxCell>
        <mxCell id="hMQv4_sGnJ2KG9TJKj9M-73" value="Input =&amp;nbsp;&lt;div&gt;id_hewan&lt;/div&gt;" style="shape=parallelogram;perimeter=parallelogramPerimeter;whiteSpace=wrap;html=1;fixedSize=1;fillColor=#FAD9D5;strokeColor=#D0CEE2;fontColor=#1A1A1A;strokeWidth=2;labelBackgroundColor=none;align=center;" parent="1" vertex="1">
          <mxGeometry x="2570" y="1550" width="132.05" height="70" as="geometry" />
        </mxCell>
        <mxCell id="hMQv4_sGnJ2KG9TJKj9M-74" value="Output &quot;Masukkan nama&amp;nbsp; baru:&quot;" style="shape=parallelogram;perimeter=parallelogramPerimeter;whiteSpace=wrap;html=1;fixedSize=1;fillColor=#FAD9D5;strokeColor=#D0CEE2;fontColor=#1A1A1A;strokeWidth=2;labelBackgroundColor=none;align=center;" parent="1" vertex="1">
          <mxGeometry x="2571.03" y="1652" width="130" height="68" as="geometry" />
        </mxCell>
        <mxCell id="hMQv4_sGnJ2KG9TJKj9M-75" value="" style="edgeStyle=orthogonalEdgeStyle;rounded=0;orthogonalLoop=1;jettySize=auto;html=1;strokeColor=#09555B;fontColor=default;labelBackgroundColor=none;" parent="1" edge="1">
          <mxGeometry relative="1" as="geometry">
            <mxPoint x="2641" y="1621" as="sourcePoint" />
            <mxPoint x="2641" y="1651" as="targetPoint" />
          </mxGeometry>
        </mxCell>
        <mxCell id="hMQv4_sGnJ2KG9TJKj9M-76" value="Input =&amp;nbsp;&lt;div&gt;nama_hewan&lt;/div&gt;" style="shape=parallelogram;perimeter=parallelogramPerimeter;whiteSpace=wrap;html=1;fixedSize=1;fillColor=#FAD9D5;strokeColor=#D0CEE2;fontColor=#1A1A1A;strokeWidth=2;labelBackgroundColor=none;align=center;" parent="1" vertex="1">
          <mxGeometry x="2569" y="1751" width="132.05" height="70" as="geometry" />
        </mxCell>
        <mxCell id="hMQv4_sGnJ2KG9TJKj9M-77" value="Output &quot;Masukkan&lt;div&gt;&amp;nbsp;jenis baru:&quot;&lt;/div&gt;" style="shape=parallelogram;perimeter=parallelogramPerimeter;whiteSpace=wrap;html=1;fixedSize=1;fillColor=#FAD9D5;strokeColor=#D0CEE2;fontColor=#1A1A1A;strokeWidth=2;labelBackgroundColor=none;align=center;" parent="1" vertex="1">
          <mxGeometry x="2570.03" y="1850" width="130" height="68" as="geometry" />
        </mxCell>
        <mxCell id="hMQv4_sGnJ2KG9TJKj9M-78" value="" style="edgeStyle=orthogonalEdgeStyle;rounded=0;orthogonalLoop=1;jettySize=auto;html=1;strokeColor=#09555B;fontColor=default;labelBackgroundColor=none;" parent="1" edge="1">
          <mxGeometry relative="1" as="geometry">
            <mxPoint x="2640" y="1820" as="sourcePoint" />
            <mxPoint x="2640" y="1850" as="targetPoint" />
          </mxGeometry>
        </mxCell>
        <mxCell id="hMQv4_sGnJ2KG9TJKj9M-79" value="" style="edgeStyle=orthogonalEdgeStyle;rounded=0;orthogonalLoop=1;jettySize=auto;html=1;strokeColor=#09555B;fontColor=default;labelBackgroundColor=none;" parent="1" edge="1">
          <mxGeometry relative="1" as="geometry">
            <mxPoint x="2641" y="1720" as="sourcePoint" />
            <mxPoint x="2641" y="1750" as="targetPoint" />
          </mxGeometry>
        </mxCell>
        <mxCell id="hMQv4_sGnJ2KG9TJKj9M-80" value="&amp;nbsp; Output &quot;Masukkan ID hewan yang ingin diubah:&quot;" style="shape=parallelogram;perimeter=parallelogramPerimeter;whiteSpace=wrap;html=1;fixedSize=1;fillColor=#FAD9D5;strokeColor=#D0CEE2;fontColor=#1A1A1A;strokeWidth=2;labelBackgroundColor=none;align=center;" parent="1" vertex="1">
          <mxGeometry x="2560" y="1451" width="142.03" height="68" as="geometry" />
        </mxCell>
        <mxCell id="hMQv4_sGnJ2KG9TJKj9M-81" value="" style="edgeStyle=orthogonalEdgeStyle;rounded=0;orthogonalLoop=1;jettySize=auto;html=1;strokeColor=#09555B;fontColor=default;labelBackgroundColor=none;" parent="1" edge="1">
          <mxGeometry relative="1" as="geometry">
            <mxPoint x="2642" y="1519" as="sourcePoint" />
            <mxPoint x="2642" y="1549" as="targetPoint" />
          </mxGeometry>
        </mxCell>
        <mxCell id="hMQv4_sGnJ2KG9TJKj9M-82" value="input =&lt;div&gt;jenis_hewan&lt;/div&gt;" style="shape=parallelogram;perimeter=parallelogramPerimeter;whiteSpace=wrap;html=1;fixedSize=1;fillColor=#FAD9D5;strokeColor=#D0CEE2;fontColor=#1A1A1A;strokeWidth=2;labelBackgroundColor=none;align=center;" parent="1" vertex="1">
          <mxGeometry x="2570" y="1948" width="132.05" height="70" as="geometry" />
        </mxCell>
        <mxCell id="hMQv4_sGnJ2KG9TJKj9M-224" style="edgeStyle=orthogonalEdgeStyle;rounded=0;orthogonalLoop=1;jettySize=auto;html=1;entryX=0.5;entryY=0;entryDx=0;entryDy=0;fontFamily=Helvetica;fontSize=12;fontColor=default;labelBackgroundColor=none;strokeColor=#09555B;" parent="1" source="hMQv4_sGnJ2KG9TJKj9M-83" target="hMQv4_sGnJ2KG9TJKj9M-222" edge="1">
          <mxGeometry relative="1" as="geometry" />
        </mxCell>
        <mxCell id="hMQv4_sGnJ2KG9TJKj9M-83" value="Output &quot;Masukkan umur baru&quot;" style="shape=parallelogram;perimeter=parallelogramPerimeter;whiteSpace=wrap;html=1;fixedSize=1;fillColor=#FAD9D5;strokeColor=#D0CEE2;fontColor=#1A1A1A;strokeWidth=2;labelBackgroundColor=none;align=center;" parent="1" vertex="1">
          <mxGeometry x="2571.03" y="2047" width="130" height="68" as="geometry" />
        </mxCell>
        <mxCell id="hMQv4_sGnJ2KG9TJKj9M-84" value="" style="edgeStyle=orthogonalEdgeStyle;rounded=0;orthogonalLoop=1;jettySize=auto;html=1;strokeColor=#09555B;fontColor=default;labelBackgroundColor=none;" parent="1" edge="1">
          <mxGeometry relative="1" as="geometry">
            <mxPoint x="2641" y="2017" as="sourcePoint" />
            <mxPoint x="2641" y="2047" as="targetPoint" />
          </mxGeometry>
        </mxCell>
        <mxCell id="hMQv4_sGnJ2KG9TJKj9M-85" value="" style="edgeStyle=orthogonalEdgeStyle;rounded=0;orthogonalLoop=1;jettySize=auto;html=1;strokeColor=#09555B;fontColor=default;labelBackgroundColor=none;" parent="1" edge="1">
          <mxGeometry relative="1" as="geometry">
            <mxPoint x="2640" y="1918" as="sourcePoint" />
            <mxPoint x="2640" y="1948" as="targetPoint" />
          </mxGeometry>
        </mxCell>
        <mxCell id="hMQv4_sGnJ2KG9TJKj9M-86" style="edgeStyle=orthogonalEdgeStyle;rounded=0;orthogonalLoop=1;jettySize=auto;html=1;labelBackgroundColor=none;strokeColor=#09555B;fontColor=default;exitX=1;exitY=0.5;exitDx=0;exitDy=0;" parent="1" source="hMQv4_sGnJ2KG9TJKj9M-251" target="hMQv4_sGnJ2KG9TJKj9M-46" edge="1">
          <mxGeometry relative="1" as="geometry">
            <mxPoint x="2695" y="2269.44" as="sourcePoint" />
            <mxPoint x="2840" y="1002" as="targetPoint" />
            <Array as="points">
              <mxPoint x="3380" y="2375" />
              <mxPoint x="3380" y="1000" />
            </Array>
          </mxGeometry>
        </mxCell>
        <mxCell id="hMQv4_sGnJ2KG9TJKj9M-252" style="edgeStyle=orthogonalEdgeStyle;rounded=0;orthogonalLoop=1;jettySize=auto;html=1;exitX=0.5;exitY=1;exitDx=0;exitDy=0;strokeColor=#09555B;fontColor=#1A1A1A;" parent="1" source="hMQv4_sGnJ2KG9TJKj9M-87" target="hMQv4_sGnJ2KG9TJKj9M-251" edge="1">
          <mxGeometry relative="1" as="geometry" />
        </mxCell>
        <mxCell id="hMQv4_sGnJ2KG9TJKj9M-87" value="input data hewan yang ingin diubah&lt;div&gt;&quot;Nama baru, Jenis baru,dan&amp;nbsp;&lt;/div&gt;&lt;div&gt;Umur baru&quot;&lt;/div&gt;" style="shape=parallelogram;perimeter=parallelogramPerimeter;whiteSpace=wrap;html=1;fixedSize=1;fillColor=#FAD9D5;strokeColor=#D0CEE2;fontColor=#1A1A1A;strokeWidth=2;labelBackgroundColor=none;align=center;" parent="1" vertex="1">
          <mxGeometry x="2520" y="2238" width="220" height="70" as="geometry" />
        </mxCell>
        <mxCell id="hMQv4_sGnJ2KG9TJKj9M-89" value="Output&amp;nbsp;&lt;div&gt;&quot;Hewan dengan ID tersebut&amp;nbsp;&lt;span style=&quot;background-color: initial;&quot;&gt;&amp;nbsp;tidak&lt;/span&gt;&lt;/div&gt;&lt;div&gt;ditemukan.&quot;&lt;/div&gt;" style="shape=parallelogram;perimeter=parallelogramPerimeter;whiteSpace=wrap;html=1;fixedSize=1;fillColor=#FAD9D5;strokeColor=#D0CEE2;fontColor=#1A1A1A;strokeWidth=2;labelBackgroundColor=none;align=center;" parent="1" vertex="1">
          <mxGeometry x="2154" y="1491" width="130" height="68" as="geometry" />
        </mxCell>
        <mxCell id="hMQv4_sGnJ2KG9TJKj9M-90" value="" style="edgeStyle=orthogonalEdgeStyle;rounded=0;orthogonalLoop=1;jettySize=auto;html=1;strokeColor=#09555B;fontColor=default;labelBackgroundColor=none;" parent="1" edge="1">
          <mxGeometry relative="1" as="geometry">
            <mxPoint x="2224" y="1558" as="sourcePoint" />
            <mxPoint x="2224" y="1588" as="targetPoint" />
          </mxGeometry>
        </mxCell>
        <mxCell id="hMQv4_sGnJ2KG9TJKj9M-91" value="pilihan == 4" style="rhombus;whiteSpace=wrap;html=1;fillColor=#FAD9D5;strokeColor=#D0CEE2;fontColor=#1A1A1A;strokeWidth=2;labelBackgroundColor=none;" parent="1" vertex="1">
          <mxGeometry x="2145.29" y="1590" width="160" height="80" as="geometry" />
        </mxCell>
        <mxCell id="hMQv4_sGnJ2KG9TJKj9M-92" value="" style="edgeStyle=orthogonalEdgeStyle;rounded=0;orthogonalLoop=1;jettySize=auto;html=1;strokeColor=#09555B;fontColor=default;exitX=0.915;exitY=0.473;exitDx=0;exitDy=0;exitPerimeter=0;labelBackgroundColor=none;" parent="1" edge="1">
          <mxGeometry relative="1" as="geometry">
            <mxPoint x="2305.29" y="1628" as="sourcePoint" />
            <Array as="points">
              <mxPoint x="2305.29" y="1630" />
              <mxPoint x="2394.29" y="1630" />
            </Array>
            <mxPoint x="2394.29" y="1650" as="targetPoint" />
          </mxGeometry>
        </mxCell>
        <mxCell id="hMQv4_sGnJ2KG9TJKj9M-93" value="" style="edgeStyle=orthogonalEdgeStyle;rounded=0;orthogonalLoop=1;jettySize=auto;html=1;strokeColor=#09555B;fontColor=default;labelBackgroundColor=none;" parent="1" edge="1">
          <mxGeometry relative="1" as="geometry">
            <mxPoint x="2145.29" y="1630" as="sourcePoint" />
            <mxPoint x="1975.29" y="1690" as="targetPoint" />
          </mxGeometry>
        </mxCell>
        <mxCell id="hMQv4_sGnJ2KG9TJKj9M-94" value="True" style="text;html=1;align=center;verticalAlign=middle;resizable=0;points=[];autosize=1;strokeColor=none;fillColor=none;fontColor=#1A1A1A;labelBackgroundColor=none;" parent="1" vertex="1">
          <mxGeometry x="2325.48" y="1600" width="50" height="30" as="geometry" />
        </mxCell>
        <mxCell id="hMQv4_sGnJ2KG9TJKj9M-95" value="False" style="text;html=1;align=center;verticalAlign=middle;resizable=0;points=[];autosize=1;strokeColor=none;fillColor=none;fontColor=#1A1A1A;labelBackgroundColor=none;" parent="1" vertex="1">
          <mxGeometry x="2042.29" y="1600" width="50" height="30" as="geometry" />
        </mxCell>
        <mxCell id="hMQv4_sGnJ2KG9TJKj9M-96" value="&amp;nbsp; &amp;nbsp; Output &quot;Masukkan&lt;div&gt;&amp;nbsp;ID hewan yang&amp;nbsp;&lt;/div&gt;&lt;div&gt;ingin dihapus&quot;&lt;/div&gt;" style="shape=parallelogram;perimeter=parallelogramPerimeter;whiteSpace=wrap;html=1;fixedSize=1;fillColor=#FAD9D5;strokeColor=#D0CEE2;fontColor=#1A1A1A;strokeWidth=2;labelBackgroundColor=none;align=center;" parent="1" vertex="1">
          <mxGeometry x="2325.48" y="1652" width="130" height="68" as="geometry" />
        </mxCell>
        <mxCell id="hMQv4_sGnJ2KG9TJKj9M-97" value="Input = id_hewan" style="shape=parallelogram;perimeter=parallelogramPerimeter;whiteSpace=wrap;html=1;fixedSize=1;fillColor=#FAD9D5;strokeColor=#D0CEE2;fontColor=#1A1A1A;strokeWidth=2;labelBackgroundColor=none;align=center;" parent="1" vertex="1">
          <mxGeometry x="2327" y="1751" width="132.05" height="70" as="geometry" />
        </mxCell>
        <mxCell id="hMQv4_sGnJ2KG9TJKj9M-98" value="" style="edgeStyle=orthogonalEdgeStyle;rounded=0;orthogonalLoop=1;jettySize=auto;html=1;strokeColor=#09555B;fontColor=default;labelBackgroundColor=none;" parent="1" edge="1">
          <mxGeometry relative="1" as="geometry">
            <mxPoint x="2394" y="1721" as="sourcePoint" />
            <mxPoint x="2394" y="1751" as="targetPoint" />
          </mxGeometry>
        </mxCell>
        <mxCell id="p29icvkrW7jEiB60gu-A-3" value="" style="edgeStyle=orthogonalEdgeStyle;rounded=0;orthogonalLoop=1;jettySize=auto;html=1;" edge="1" parent="1" source="hMQv4_sGnJ2KG9TJKj9M-99" target="p29icvkrW7jEiB60gu-A-1">
          <mxGeometry relative="1" as="geometry">
            <Array as="points">
              <mxPoint x="2393" y="1920" />
              <mxPoint x="2393" y="1920" />
            </Array>
          </mxGeometry>
        </mxCell>
        <mxCell id="hMQv4_sGnJ2KG9TJKj9M-99" value="delete datahewan [id_hewan]&amp;nbsp;" style="shape=parallelogram;perimeter=parallelogramPerimeter;whiteSpace=wrap;html=1;fixedSize=1;fillColor=#FAD9D5;strokeColor=#D0CEE2;fontColor=#1A1A1A;strokeWidth=2;labelBackgroundColor=none;align=center;" parent="1" vertex="1">
          <mxGeometry x="2324.02" y="1855" width="130" height="68" as="geometry" />
        </mxCell>
        <mxCell id="hMQv4_sGnJ2KG9TJKj9M-100" value="" style="edgeStyle=orthogonalEdgeStyle;rounded=0;orthogonalLoop=1;jettySize=auto;html=1;strokeColor=#09555B;fontColor=default;labelBackgroundColor=none;" parent="1" edge="1">
          <mxGeometry relative="1" as="geometry">
            <mxPoint x="2394" y="1824" as="sourcePoint" />
            <mxPoint x="2394" y="1854" as="targetPoint" />
          </mxGeometry>
        </mxCell>
        <mxCell id="hMQv4_sGnJ2KG9TJKj9M-101" style="edgeStyle=orthogonalEdgeStyle;rounded=0;orthogonalLoop=1;jettySize=auto;html=1;exitX=0.5;exitY=1;exitDx=0;exitDy=0;labelBackgroundColor=none;strokeColor=#09555B;fontColor=default;" parent="1" target="hMQv4_sGnJ2KG9TJKj9M-46" edge="1" source="p29icvkrW7jEiB60gu-A-1">
          <mxGeometry relative="1" as="geometry">
            <Array as="points">
              <mxPoint x="2390" y="2020" />
              <mxPoint x="2390" y="2460" />
              <mxPoint x="3503" y="2460" />
              <mxPoint x="3503" y="970" />
            </Array>
            <mxPoint x="2430" y="1990.37" as="sourcePoint" />
            <mxPoint x="2820" y="990" as="targetPoint" />
          </mxGeometry>
        </mxCell>
        <mxCell id="hMQv4_sGnJ2KG9TJKj9M-106" value="Output &quot;Hewan&lt;div&gt;&amp;nbsp;dengan ID tersebut tidak ditemukan&quot;&lt;/div&gt;" style="shape=parallelogram;perimeter=parallelogramPerimeter;whiteSpace=wrap;html=1;fixedSize=1;fillColor=#FAD9D5;strokeColor=#D0CEE2;fontColor=#1A1A1A;strokeWidth=2;labelBackgroundColor=none;align=center;" parent="1" vertex="1">
          <mxGeometry x="1905.16" y="1691" width="132.05" height="70" as="geometry" />
        </mxCell>
        <mxCell id="hMQv4_sGnJ2KG9TJKj9M-210" value="" style="edgeStyle=orthogonalEdgeStyle;rounded=0;orthogonalLoop=1;jettySize=auto;html=1;fontFamily=Helvetica;fontSize=12;fontColor=default;labelBackgroundColor=none;strokeColor=#09555B;" parent="1" source="hMQv4_sGnJ2KG9TJKj9M-108" target="hMQv4_sGnJ2KG9TJKj9M-209" edge="1">
          <mxGeometry relative="1" as="geometry" />
        </mxCell>
        <mxCell id="hMQv4_sGnJ2KG9TJKj9M-108" value="&lt;font color=&quot;#000000&quot;&gt;input =&amp;nbsp;&lt;/font&gt;&lt;div&gt;&lt;font color=&quot;#000000&quot;&gt;umur_hewan&lt;/font&gt;&lt;/div&gt;" style="shape=parallelogram;perimeter=parallelogramPerimeter;whiteSpace=wrap;html=1;fixedSize=1;fillColor=#FAD9D5;strokeColor=#D0CEE2;fontColor=#1A1A1A;strokeWidth=2;labelBackgroundColor=none;align=center;" parent="1" vertex="1">
          <mxGeometry x="3060" y="1986" width="130" height="54" as="geometry" />
        </mxCell>
        <mxCell id="hMQv4_sGnJ2KG9TJKj9M-109" value="" style="endArrow=classic;html=1;rounded=0;labelBackgroundColor=none;strokeColor=#09555B;fontColor=default;" parent="1" edge="1">
          <mxGeometry width="50" height="50" relative="1" as="geometry">
            <mxPoint x="3125" y="1955" as="sourcePoint" />
            <mxPoint x="3125" y="1985" as="targetPoint" />
          </mxGeometry>
        </mxCell>
        <mxCell id="hMQv4_sGnJ2KG9TJKj9M-112" value="" style="edgeStyle=orthogonalEdgeStyle;rounded=0;orthogonalLoop=1;jettySize=auto;html=1;strokeColor=#09555B;fontColor=default;labelBackgroundColor=none;" parent="1" edge="1">
          <mxGeometry relative="1" as="geometry">
            <mxPoint x="2640" y="2210" as="sourcePoint" />
            <mxPoint x="2640" y="2240" as="targetPoint" />
          </mxGeometry>
        </mxCell>
        <mxCell id="hMQv4_sGnJ2KG9TJKj9M-113" value="&lt;font color=&quot;#000000&quot;&gt;Output=&quot;Masukan&amp;nbsp;&lt;/font&gt;&lt;div&gt;&lt;span style=&quot;background-color: initial;&quot;&gt;&lt;font color=&quot;#000000&quot;&gt;ID hewan&quot;&lt;/font&gt;&lt;/span&gt;&lt;/div&gt;" style="shape=parallelogram;perimeter=parallelogramPerimeter;whiteSpace=wrap;html=1;fixedSize=1;fillColor=#FAD9D5;strokeColor=#D0CEE2;fontColor=#1A1A1A;strokeWidth=2;labelBackgroundColor=none;align=center;" parent="1" vertex="1">
          <mxGeometry x="3059.5" y="1290" width="130" height="70" as="geometry" />
        </mxCell>
        <mxCell id="hMQv4_sGnJ2KG9TJKj9M-114" value="" style="endArrow=classic;html=1;rounded=0;labelBackgroundColor=none;strokeColor=#09555B;fontColor=default;" parent="1" edge="1">
          <mxGeometry width="50" height="50" relative="1" as="geometry">
            <mxPoint x="3124" y="1360" as="sourcePoint" />
            <mxPoint x="3124" y="1390" as="targetPoint" />
          </mxGeometry>
        </mxCell>
        <mxCell id="hMQv4_sGnJ2KG9TJKj9M-115" value="&lt;font color=&quot;#000000&quot;&gt;Output=&quot;Masukkan&lt;/font&gt;&lt;div&gt;&lt;span style=&quot;background-color: initial;&quot;&gt;&lt;font color=&quot;#000000&quot;&gt;nama hewan&quot;&lt;/font&gt;&lt;/span&gt;&lt;/div&gt;" style="shape=parallelogram;perimeter=parallelogramPerimeter;whiteSpace=wrap;html=1;fixedSize=1;fillColor=#FAD9D5;strokeColor=#D0CEE2;fontColor=#1A1A1A;strokeWidth=2;labelBackgroundColor=none;align=center;" parent="1" vertex="1">
          <mxGeometry x="3059.5" y="1491" width="130" height="70" as="geometry" />
        </mxCell>
        <mxCell id="hMQv4_sGnJ2KG9TJKj9M-116" value="" style="endArrow=classic;html=1;rounded=0;labelBackgroundColor=none;strokeColor=#09555B;fontColor=default;" parent="1" edge="1">
          <mxGeometry width="50" height="50" relative="1" as="geometry">
            <mxPoint x="3124" y="1460" as="sourcePoint" />
            <mxPoint x="3124" y="1490" as="targetPoint" />
          </mxGeometry>
        </mxCell>
        <mxCell id="hMQv4_sGnJ2KG9TJKj9M-117" value="&lt;font color=&quot;#000000&quot;&gt;Output=&quot;Masukkan&lt;/font&gt;&lt;div&gt;&lt;span style=&quot;background-color: initial;&quot;&gt;&lt;font color=&quot;#000000&quot;&gt;jenis hewan&quot;&lt;/font&gt;&lt;/span&gt;&lt;/div&gt;" style="shape=parallelogram;perimeter=parallelogramPerimeter;whiteSpace=wrap;html=1;fixedSize=1;fillColor=#FAD9D5;strokeColor=#D0CEE2;fontColor=#1A1A1A;strokeWidth=2;labelBackgroundColor=none;align=center;" parent="1" vertex="1">
          <mxGeometry x="3060" y="1692" width="130" height="70" as="geometry" />
        </mxCell>
        <mxCell id="hMQv4_sGnJ2KG9TJKj9M-118" value="" style="endArrow=classic;html=1;rounded=0;labelBackgroundColor=none;strokeColor=#09555B;fontColor=default;" parent="1" edge="1">
          <mxGeometry width="50" height="50" relative="1" as="geometry">
            <mxPoint x="3124" y="1661" as="sourcePoint" />
            <mxPoint x="3124" y="1691" as="targetPoint" />
          </mxGeometry>
        </mxCell>
        <mxCell id="hMQv4_sGnJ2KG9TJKj9M-119" value="if pengguna == &quot;pengguna&quot;" style="rhombus;whiteSpace=wrap;html=1;fillColor=#FAD9D5;strokeColor=#D0CEE2;fontColor=#1A1A1A;strokeWidth=2;labelBackgroundColor=none;" parent="1" vertex="1">
          <mxGeometry x="3724.19" y="411.25" width="180" height="67.5" as="geometry" />
        </mxCell>
        <mxCell id="hMQv4_sGnJ2KG9TJKj9M-255" style="edgeStyle=orthogonalEdgeStyle;rounded=0;orthogonalLoop=1;jettySize=auto;html=1;exitX=1;exitY=0.5;exitDx=0;exitDy=0;strokeColor=#09555B;fontColor=#1A1A1A;entryX=1;entryY=0.25;entryDx=0;entryDy=0;" parent="1" source="hMQv4_sGnJ2KG9TJKj9M-120" target="hMQv4_sGnJ2KG9TJKj9M-5" edge="1">
          <mxGeometry relative="1" as="geometry">
            <mxPoint x="2940" y="140" as="targetPoint" />
            <Array as="points">
              <mxPoint x="2200" y="1832" />
              <mxPoint x="2200" y="2520" />
              <mxPoint x="4840" y="2520" />
              <mxPoint x="4840" y="175" />
            </Array>
          </mxGeometry>
        </mxCell>
        <mxCell id="hMQv4_sGnJ2KG9TJKj9M-120" value="pilihan == 5" style="rhombus;whiteSpace=wrap;html=1;fillColor=#FAD9D5;strokeColor=#D0CEE2;fontColor=#1A1A1A;strokeWidth=2;labelBackgroundColor=none;" parent="1" vertex="1">
          <mxGeometry x="1893.81" y="1792" width="160" height="80" as="geometry" />
        </mxCell>
        <mxCell id="hMQv4_sGnJ2KG9TJKj9M-122" value="" style="edgeStyle=orthogonalEdgeStyle;rounded=0;orthogonalLoop=1;jettySize=auto;html=1;strokeColor=#09555B;fontColor=default;labelBackgroundColor=none;" parent="1" edge="1">
          <mxGeometry relative="1" as="geometry">
            <mxPoint x="1893.81" y="1832" as="sourcePoint" />
            <mxPoint x="1723.81" y="1892" as="targetPoint" />
          </mxGeometry>
        </mxCell>
        <mxCell id="hMQv4_sGnJ2KG9TJKj9M-123" value="True" style="text;html=1;align=center;verticalAlign=middle;resizable=0;points=[];autosize=1;strokeColor=none;fillColor=none;fontColor=#1A1A1A;labelBackgroundColor=none;" parent="1" vertex="1">
          <mxGeometry x="2074" y="1802" width="50" height="30" as="geometry" />
        </mxCell>
        <mxCell id="hMQv4_sGnJ2KG9TJKj9M-124" value="False" style="text;html=1;align=center;verticalAlign=middle;resizable=0;points=[];autosize=1;strokeColor=none;fillColor=none;fontColor=#1A1A1A;labelBackgroundColor=none;" parent="1" vertex="1">
          <mxGeometry x="1790.81" y="1802" width="50" height="30" as="geometry" />
        </mxCell>
        <mxCell id="hMQv4_sGnJ2KG9TJKj9M-127" value="" style="edgeStyle=orthogonalEdgeStyle;rounded=0;orthogonalLoop=1;jettySize=auto;html=1;strokeColor=#09555B;fontColor=default;labelBackgroundColor=none;" parent="1" edge="1">
          <mxGeometry relative="1" as="geometry">
            <mxPoint x="1973" y="1761" as="sourcePoint" />
            <mxPoint x="1973" y="1791" as="targetPoint" />
          </mxGeometry>
        </mxCell>
        <mxCell id="hMQv4_sGnJ2KG9TJKj9M-131" value="&lt;font style=&quot;font-size: 11px;&quot;&gt;&lt;font style=&quot;font-size: 11px;&quot; face=&quot;Verdana&quot;&gt;&amp;nbsp; MENU PENGGUNA&amp;nbsp;&lt;/font&gt;&lt;span style=&quot;font-family: Verdana; background-color: initial;&quot;&gt;PET SHOP&lt;/span&gt;&lt;/font&gt;&lt;div&gt;&lt;font style=&quot;font-size: 11px;&quot;&gt;&lt;span style=&quot;font-family: Verdana; background-color: initial;&quot;&gt;1. TAMPILKAN HEWAN&lt;/span&gt;&lt;/font&gt;&lt;/div&gt;&lt;div&gt;&lt;font style=&quot;font-size: 11px;&quot;&gt;&lt;span style=&quot;font-family: Verdana; background-color: initial;&quot;&gt;2. LOGOUT&lt;/span&gt;&lt;/font&gt;&lt;/div&gt;" style="shape=parallelogram;perimeter=parallelogramPerimeter;whiteSpace=wrap;html=1;fixedSize=1;fillColor=#FAD9D5;strokeColor=#D0CEE2;fontColor=#1A1A1A;strokeWidth=2;labelBackgroundColor=none;align=center;" parent="1" vertex="1">
          <mxGeometry x="4291" y="410" width="180" height="102" as="geometry" />
        </mxCell>
        <mxCell id="hMQv4_sGnJ2KG9TJKj9M-132" value="pilihan == 1" style="rhombus;whiteSpace=wrap;html=1;fillColor=#FAD9D5;strokeColor=#D0CEE2;fontColor=#1A1A1A;strokeWidth=2;labelBackgroundColor=none;" parent="1" vertex="1">
          <mxGeometry x="4301" y="550" width="160" height="80" as="geometry" />
        </mxCell>
        <mxCell id="hMQv4_sGnJ2KG9TJKj9M-134" value="" style="edgeStyle=orthogonalEdgeStyle;rounded=0;orthogonalLoop=1;jettySize=auto;html=1;strokeColor=#09555B;fontColor=default;labelBackgroundColor=none;" parent="1" edge="1">
          <mxGeometry relative="1" as="geometry">
            <mxPoint x="4301" y="590" as="sourcePoint" />
            <mxPoint x="4171" y="650" as="targetPoint" />
          </mxGeometry>
        </mxCell>
        <mxCell id="hMQv4_sGnJ2KG9TJKj9M-135" value="True" style="text;html=1;align=center;verticalAlign=middle;resizable=0;points=[];autosize=1;strokeColor=none;fillColor=none;fontColor=#1A1A1A;labelBackgroundColor=none;" parent="1" vertex="1">
          <mxGeometry x="4481.1900000000005" y="560" width="50" height="30" as="geometry" />
        </mxCell>
        <mxCell id="hMQv4_sGnJ2KG9TJKj9M-136" value="False" style="text;html=1;align=center;verticalAlign=middle;resizable=0;points=[];autosize=1;strokeColor=none;fillColor=none;fontColor=#1A1A1A;labelBackgroundColor=none;" parent="1" vertex="1">
          <mxGeometry x="4219" y="560" width="50" height="30" as="geometry" />
        </mxCell>
        <mxCell id="hMQv4_sGnJ2KG9TJKj9M-137" style="edgeStyle=orthogonalEdgeStyle;rounded=0;orthogonalLoop=1;jettySize=auto;html=1;entryX=1;entryY=0.75;entryDx=0;entryDy=0;exitX=0.571;exitY=0.972;exitDx=0;exitDy=0;exitPerimeter=0;labelBackgroundColor=none;strokeColor=#09555B;fontColor=default;" parent="1" source="hMQv4_sGnJ2KG9TJKj9M-153" target="hMQv4_sGnJ2KG9TJKj9M-131" edge="1">
          <mxGeometry relative="1" as="geometry">
            <mxPoint x="4720.000000000001" y="480" as="targetPoint" />
            <Array as="points">
              <mxPoint x="4563" y="935" />
              <mxPoint x="4680" y="935" />
              <mxPoint x="4680" y="483" />
            </Array>
            <mxPoint x="4605.1710606060615" y="935.0909090909088" as="sourcePoint" />
          </mxGeometry>
        </mxCell>
        <mxCell id="hMQv4_sGnJ2KG9TJKj9M-246" style="edgeStyle=orthogonalEdgeStyle;rounded=0;orthogonalLoop=1;jettySize=auto;html=1;exitX=1;exitY=0.5;exitDx=0;exitDy=0;fontFamily=Helvetica;fontSize=12;fontColor=default;labelBackgroundColor=none;entryX=1;entryY=0.5;entryDx=0;entryDy=0;strokeColor=#09555B;" parent="1" source="hMQv4_sGnJ2KG9TJKj9M-139" target="hMQv4_sGnJ2KG9TJKj9M-131" edge="1">
          <mxGeometry relative="1" as="geometry">
            <mxPoint x="4740" y="881.7778862847222" as="targetPoint" />
            <Array as="points">
              <mxPoint x="4320" y="691" />
              <mxPoint x="4320" y="1000" />
              <mxPoint x="4741" y="1000" />
              <mxPoint x="4741" y="461" />
            </Array>
          </mxGeometry>
        </mxCell>
        <mxCell id="hMQv4_sGnJ2KG9TJKj9M-139" value="pilihan == 2" style="rhombus;whiteSpace=wrap;html=1;fillColor=#FAD9D5;strokeColor=#D0CEE2;fontColor=#1A1A1A;strokeWidth=2;labelBackgroundColor=none;" parent="1" vertex="1">
          <mxGeometry x="4092" y="651" width="160" height="80" as="geometry" />
        </mxCell>
        <mxCell id="hMQv4_sGnJ2KG9TJKj9M-141" value="" style="edgeStyle=orthogonalEdgeStyle;rounded=0;orthogonalLoop=1;jettySize=auto;html=1;strokeColor=#09555B;fontColor=default;labelBackgroundColor=none;" parent="1" edge="1">
          <mxGeometry relative="1" as="geometry">
            <mxPoint x="4092" y="691" as="sourcePoint" />
            <mxPoint x="3971" y="740" as="targetPoint" />
          </mxGeometry>
        </mxCell>
        <mxCell id="hMQv4_sGnJ2KG9TJKj9M-142" value="True" style="text;html=1;align=center;verticalAlign=middle;resizable=0;points=[];autosize=1;strokeColor=none;fillColor=none;fontColor=#1A1A1A;labelBackgroundColor=none;" parent="1" vertex="1">
          <mxGeometry x="4272.1900000000005" y="661" width="50" height="30" as="geometry" />
        </mxCell>
        <mxCell id="hMQv4_sGnJ2KG9TJKj9M-143" value="False" style="text;html=1;align=center;verticalAlign=middle;resizable=0;points=[];autosize=1;strokeColor=none;fillColor=none;fontColor=#1A1A1A;labelBackgroundColor=none;" parent="1" vertex="1">
          <mxGeometry x="4009" y="661" width="50" height="30" as="geometry" />
        </mxCell>
        <mxCell id="hMQv4_sGnJ2KG9TJKj9M-153" value="&lt;div&gt;Output &quot;Tampilkan Nama,Jenis,dan Umur&quot;&lt;/div&gt;" style="shape=parallelogram;perimeter=parallelogramPerimeter;whiteSpace=wrap;html=1;fixedSize=1;fillColor=#FAD9D5;strokeColor=#D0CEE2;fontColor=#1A1A1A;strokeWidth=2;labelBackgroundColor=none;align=center;" parent="1" vertex="1">
          <mxGeometry x="4460.1900000000005" y="658" width="180" height="112" as="geometry" />
        </mxCell>
        <mxCell id="hMQv4_sGnJ2KG9TJKj9M-166" value="Break" style="text;html=1;align=center;verticalAlign=middle;whiteSpace=wrap;rounded=0;labelBackgroundColor=none;fontColor=#1A1A1A;" parent="1" vertex="1">
          <mxGeometry x="4009" y="772.5" width="59.36" height="30" as="geometry" />
        </mxCell>
        <mxCell id="hMQv4_sGnJ2KG9TJKj9M-190" style="edgeStyle=orthogonalEdgeStyle;rounded=0;orthogonalLoop=1;jettySize=auto;html=1;exitX=0.5;exitY=1;exitDx=0;exitDy=0;labelBackgroundColor=none;strokeColor=#09555B;fontColor=default;" parent="1" edge="1">
          <mxGeometry relative="1" as="geometry">
            <mxPoint x="2160" y="1962" as="sourcePoint" />
            <mxPoint x="2160" y="1962" as="targetPoint" />
          </mxGeometry>
        </mxCell>
        <mxCell id="hMQv4_sGnJ2KG9TJKj9M-191" value="&lt;font color=&quot;#000000&quot;&gt;SELESAI&lt;/font&gt;" style="strokeWidth=2;html=1;shape=mxgraph.flowchart.terminator;whiteSpace=wrap;align=center;fillColor=#FAD9D5;strokeColor=#D0CEE2;fontStyle=1;labelBackgroundColor=none;fontColor=#1A1A1A;" parent="1" vertex="1">
          <mxGeometry x="2640" y="2740" width="80" height="20" as="geometry" />
        </mxCell>
        <mxCell id="hMQv4_sGnJ2KG9TJKj9M-192" value="" style="edgeStyle=orthogonalEdgeStyle;rounded=0;orthogonalLoop=1;jettySize=auto;html=1;strokeColor=#09555B;fontColor=default;entryX=0.5;entryY=0;entryDx=0;entryDy=0;labelBackgroundColor=none;" parent="1" target="hMQv4_sGnJ2KG9TJKj9M-197" edge="1">
          <mxGeometry relative="1" as="geometry">
            <mxPoint x="1875.37" y="533" as="sourcePoint" />
            <mxPoint x="1970" y="610" as="targetPoint" />
            <Array as="points">
              <mxPoint x="1924" y="533" />
            </Array>
          </mxGeometry>
        </mxCell>
        <mxCell id="hMQv4_sGnJ2KG9TJKj9M-193" value="" style="edgeStyle=orthogonalEdgeStyle;rounded=0;orthogonalLoop=1;jettySize=auto;html=1;strokeColor=#09555B;fontColor=default;align=center;exitX=0;exitY=0.5;exitDx=0;exitDy=0;exitPerimeter=0;labelBackgroundColor=none;" parent="1" source="hMQv4_sGnJ2KG9TJKj9M-56" edge="1">
          <mxGeometry relative="1" as="geometry">
            <mxPoint x="1620" y="608.5" as="targetPoint" />
            <mxPoint x="1758" y="541.5" as="sourcePoint" />
          </mxGeometry>
        </mxCell>
        <mxCell id="hMQv4_sGnJ2KG9TJKj9M-194" value="True" style="text;html=1;align=center;verticalAlign=middle;resizable=0;points=[];autosize=1;strokeColor=none;fillColor=none;fontColor=#1A1A1A;labelBackgroundColor=none;" parent="1" vertex="1">
          <mxGeometry x="1900" y="503" width="50" height="30" as="geometry" />
        </mxCell>
        <mxCell id="hMQv4_sGnJ2KG9TJKj9M-195" value="False" style="text;html=1;align=center;verticalAlign=middle;resizable=0;points=[];autosize=1;strokeColor=none;fillColor=none;fontColor=#1A1A1A;labelBackgroundColor=none;" parent="1" vertex="1">
          <mxGeometry x="1680" y="503" width="50" height="30" as="geometry" />
        </mxCell>
        <mxCell id="hMQv4_sGnJ2KG9TJKj9M-196" style="edgeStyle=orthogonalEdgeStyle;rounded=0;orthogonalLoop=1;jettySize=auto;html=1;exitX=1;exitY=0.5;exitDx=0;exitDy=0;entryX=0.052;entryY=0.416;entryDx=0;entryDy=0;entryPerimeter=0;labelBackgroundColor=none;strokeColor=#09555B;fontColor=default;" parent="1" source="hMQv4_sGnJ2KG9TJKj9M-119" target="hMQv4_sGnJ2KG9TJKj9M-131" edge="1">
          <mxGeometry relative="1" as="geometry">
            <Array as="points">
              <mxPoint x="4300" y="445" />
            </Array>
          </mxGeometry>
        </mxCell>
        <mxCell id="hMQv4_sGnJ2KG9TJKj9M-239" style="edgeStyle=orthogonalEdgeStyle;rounded=0;orthogonalLoop=1;jettySize=auto;html=1;exitX=0;exitY=0.5;exitDx=0;exitDy=0;fontFamily=Helvetica;fontSize=12;fontColor=default;labelBackgroundColor=none;entryX=0.5;entryY=0;entryDx=0;entryDy=0;entryPerimeter=0;strokeColor=#09555B;" parent="1" source="hMQv4_sGnJ2KG9TJKj9M-197" target="hMQv4_sGnJ2KG9TJKj9M-191" edge="1">
          <mxGeometry relative="1" as="geometry">
            <mxPoint x="2230" y="2530" as="targetPoint" />
            <Array as="points">
              <mxPoint x="1560" y="810" />
              <mxPoint x="1560" y="2610" />
              <mxPoint x="2680" y="2610" />
            </Array>
          </mxGeometry>
        </mxCell>
        <mxCell id="hMQv4_sGnJ2KG9TJKj9M-197" value="&amp;nbsp;Output &quot;Terima kasih telah menggunakan program petshop ini.&lt;span style=&quot;background-color: initial;&quot;&gt;&quot;&lt;/span&gt;" style="shape=parallelogram;perimeter=parallelogramPerimeter;whiteSpace=wrap;html=1;fixedSize=1;fillColor=#FAD9D5;strokeColor=#D0CEE2;fontColor=#1A1A1A;strokeWidth=2;labelBackgroundColor=none;size=12.569999999999936;" parent="1" vertex="1">
          <mxGeometry x="1840" y="772.5" width="167.5" height="75" as="geometry" />
        </mxCell>
        <mxCell id="hMQv4_sGnJ2KG9TJKj9M-206" value="" style="edgeStyle=orthogonalEdgeStyle;rounded=0;orthogonalLoop=1;jettySize=auto;html=1;labelBackgroundColor=none;strokeColor=#09555B;fontColor=default;" parent="1" source="hMQv4_sGnJ2KG9TJKj9M-203" target="hMQv4_sGnJ2KG9TJKj9M-30" edge="1">
          <mxGeometry relative="1" as="geometry">
            <Array as="points">
              <mxPoint x="2440" y="520" />
              <mxPoint x="2440" y="520" />
            </Array>
          </mxGeometry>
        </mxCell>
        <mxCell id="hMQv4_sGnJ2KG9TJKj9M-203" value="Output &quot;Login&quot;" style="shape=parallelogram;perimeter=parallelogramPerimeter;whiteSpace=wrap;html=1;fixedSize=1;fillColor=#FAD9D5;labelBackgroundColor=none;strokeColor=#D0CEE2;fontColor=#1A1A1A;" parent="1" vertex="1">
          <mxGeometry x="2386.25" y="443" width="120" height="60" as="geometry" />
        </mxCell>
        <mxCell id="hMQv4_sGnJ2KG9TJKj9M-205" style="edgeStyle=orthogonalEdgeStyle;rounded=0;orthogonalLoop=1;jettySize=auto;html=1;exitX=1;exitY=0.5;exitDx=0;exitDy=0;exitPerimeter=0;entryX=0.598;entryY=0.075;entryDx=0;entryDy=0;entryPerimeter=0;labelBackgroundColor=none;strokeColor=#09555B;fontColor=default;" parent="1" source="hMQv4_sGnJ2KG9TJKj9M-11" target="hMQv4_sGnJ2KG9TJKj9M-203" edge="1">
          <mxGeometry relative="1" as="geometry" />
        </mxCell>
        <mxCell id="hMQv4_sGnJ2KG9TJKj9M-253" style="edgeStyle=orthogonalEdgeStyle;rounded=0;orthogonalLoop=1;jettySize=auto;html=1;exitX=0.5;exitY=1;exitDx=0;exitDy=0;strokeColor=#09555B;fontColor=#1A1A1A;" parent="1" source="hMQv4_sGnJ2KG9TJKj9M-209" target="hMQv4_sGnJ2KG9TJKj9M-46" edge="1">
          <mxGeometry relative="1" as="geometry">
            <mxPoint x="2880" y="1050" as="targetPoint" />
            <Array as="points">
              <mxPoint x="3125" y="2150" />
              <mxPoint x="3300" y="2150" />
              <mxPoint x="3300" y="1030" />
            </Array>
          </mxGeometry>
        </mxCell>
        <mxCell id="hMQv4_sGnJ2KG9TJKj9M-209" value="Output &quot;Data hewan berhasil ditambahkan&quot;" style="shape=parallelogram;perimeter=parallelogramPerimeter;whiteSpace=wrap;html=1;fixedSize=1;strokeColor=#D0CEE2;strokeWidth=2;align=center;verticalAlign=middle;fontFamily=Helvetica;fontSize=12;fontColor=#1A1A1A;labelBackgroundColor=none;fillColor=#FAD9D5;" parent="1" vertex="1">
          <mxGeometry x="3052.5" y="2070" width="145" height="60" as="geometry" />
        </mxCell>
        <mxCell id="hMQv4_sGnJ2KG9TJKj9M-212" value="Output &quot;Masukkan umur hewan (tahun)&quot;" style="shape=parallelogram;perimeter=parallelogramPerimeter;whiteSpace=wrap;html=1;fixedSize=1;strokeColor=#D0CEE2;strokeWidth=2;align=center;verticalAlign=middle;fontFamily=Helvetica;fontSize=12;fontColor=#1A1A1A;labelBackgroundColor=none;fillColor=#FAD9D5;" parent="1" vertex="1">
          <mxGeometry x="3045" y="1894" width="160" height="60" as="geometry" />
        </mxCell>
        <mxCell id="hMQv4_sGnJ2KG9TJKj9M-219" style="edgeStyle=orthogonalEdgeStyle;rounded=0;orthogonalLoop=1;jettySize=auto;html=1;exitX=0.5;exitY=0;exitDx=0;exitDy=0;fontFamily=Helvetica;fontSize=12;fontColor=default;labelBackgroundColor=none;strokeColor=#09555B;" parent="1" source="hMQv4_sGnJ2KG9TJKj9M-24" target="hMQv4_sGnJ2KG9TJKj9M-5" edge="1">
          <mxGeometry relative="1" as="geometry">
            <mxPoint x="3060" y="170" as="targetPoint" />
            <Array as="points">
              <mxPoint x="3240" y="425" />
              <mxPoint x="3240" y="200" />
            </Array>
          </mxGeometry>
        </mxCell>
        <mxCell id="hMQv4_sGnJ2KG9TJKj9M-222" value="Input =&lt;div&gt;umur_hewan&lt;/div&gt;" style="shape=parallelogram;perimeter=parallelogramPerimeter;whiteSpace=wrap;html=1;fixedSize=1;strokeColor=#D0CEE2;strokeWidth=2;align=center;verticalAlign=middle;fontFamily=Helvetica;fontSize=12;fontColor=#1A1A1A;labelBackgroundColor=none;fillColor=#FAD9D5;" parent="1" vertex="1">
          <mxGeometry x="2575.03" y="2150" width="120" height="60" as="geometry" />
        </mxCell>
        <mxCell id="hMQv4_sGnJ2KG9TJKj9M-234" value="" style="verticalLabelPosition=bottom;verticalAlign=top;html=1;shape=mxgraph.basic.polygon;polyCoords=[[0.25,0],[0.75,0],[1,0.25],[1,0.75],[0.75,1],[0.25,1],[0,0.75],[0,0.25]];polyline=0;strokeColor=#D0CEE2;strokeWidth=2;align=center;fontFamily=Helvetica;fontSize=12;fontColor=#1A1A1A;labelBackgroundColor=none;fillColor=#FAD9D5;" parent="1" vertex="1">
          <mxGeometry x="1590" y="610" width="70" height="60" as="geometry" />
        </mxCell>
        <mxCell id="hMQv4_sGnJ2KG9TJKj9M-235" value="Break" style="text;html=1;align=center;verticalAlign=middle;whiteSpace=wrap;rounded=0;fontFamily=Helvetica;fontSize=12;fontColor=#1A1A1A;labelBackgroundColor=none;" parent="1" vertex="1">
          <mxGeometry x="1660" y="625" width="60" height="30" as="geometry" />
        </mxCell>
        <mxCell id="hMQv4_sGnJ2KG9TJKj9M-236" value="" style="verticalLabelPosition=bottom;verticalAlign=top;html=1;shape=mxgraph.basic.polygon;polyCoords=[[0.25,0],[0.75,0],[1,0.25],[1,0.75],[0.75,1],[0.25,1],[0,0.75],[0,0.25]];polyline=0;strokeColor=#D0CEE2;strokeWidth=2;align=center;fontFamily=Helvetica;fontSize=12;fontColor=#1A1A1A;labelBackgroundColor=none;fillColor=#FAD9D5;" parent="1" vertex="1">
          <mxGeometry x="1675" y="1894" width="100" height="100" as="geometry" />
        </mxCell>
        <mxCell id="hMQv4_sGnJ2KG9TJKj9M-237" value="Break" style="text;html=1;align=center;verticalAlign=middle;whiteSpace=wrap;rounded=0;fontFamily=Helvetica;fontSize=12;fontColor=#1A1A1A;labelBackgroundColor=none;" parent="1" vertex="1">
          <mxGeometry x="1780.81" y="1940" width="60" height="30" as="geometry" />
        </mxCell>
        <mxCell id="hMQv4_sGnJ2KG9TJKj9M-240" style="edgeStyle=orthogonalEdgeStyle;rounded=0;orthogonalLoop=1;jettySize=auto;html=1;exitX=1;exitY=0.5;exitDx=0;exitDy=0;entryX=0.579;entryY=0.05;entryDx=0;entryDy=0;entryPerimeter=0;fontFamily=Helvetica;fontSize=12;fontColor=default;labelBackgroundColor=none;strokeColor=#09555B;" parent="1" source="hMQv4_sGnJ2KG9TJKj9M-132" target="hMQv4_sGnJ2KG9TJKj9M-153" edge="1">
          <mxGeometry relative="1" as="geometry" />
        </mxCell>
        <mxCell id="hMQv4_sGnJ2KG9TJKj9M-249" value="" style="verticalLabelPosition=bottom;verticalAlign=top;html=1;shape=mxgraph.basic.polygon;polyCoords=[[0.25,0],[0.75,0],[1,0.25],[1,0.75],[0.75,1],[0.25,1],[0,0.75],[0,0.25]];polyline=0;strokeColor=#D0CEE2;strokeWidth=2;align=center;fontFamily=Helvetica;fontSize=12;fontColor=#1A1A1A;labelBackgroundColor=none;fillColor=#FAD9D5;" parent="1" vertex="1">
          <mxGeometry x="3940" y="741.25" width="59" height="57.5" as="geometry" />
        </mxCell>
        <mxCell id="hMQv4_sGnJ2KG9TJKj9M-251" value="Output &quot;Data hewan berhasil diupdate.&quot;" style="shape=parallelogram;perimeter=parallelogramPerimeter;whiteSpace=wrap;html=1;fixedSize=1;fillColor=#FAD9D5;strokeColor=#D0CEE2;fontColor=#1A1A1A;strokeWidth=2;labelBackgroundColor=none;align=center;" parent="1" vertex="1">
          <mxGeometry x="2564.9900000000002" y="2340" width="132.05" height="70" as="geometry" />
        </mxCell>
        <mxCell id="WKifwVFVRLrFtS_jPmNw-1" value="" style="endArrow=classic;html=1;rounded=0;exitX=0.777;exitY=0.911;exitDx=0;exitDy=0;exitPerimeter=0;" parent="1" source="hMQv4_sGnJ2KG9TJKj9M-153" edge="1">
          <mxGeometry width="50" height="50" relative="1" as="geometry">
            <mxPoint x="4320" y="620" as="sourcePoint" />
            <mxPoint x="4640" y="760" as="targetPoint" />
            <Array as="points" />
          </mxGeometry>
        </mxCell>
        <mxCell id="p29icvkrW7jEiB60gu-A-1" value="&lt;span style=&quot;color: rgb(26, 26, 26);&quot;&gt;&lt;font style=&quot;font-size: 11px;&quot;&gt;Output&lt;/font&gt;&lt;/span&gt;&lt;span style=&quot;font-size: 11px; background-color: initial;&quot;&gt;&amp;nbsp;&quot;Data hewan dengan ID&lt;/span&gt;&lt;div&gt;&lt;span style=&quot;font-size: 11px; background-color: initial;&quot;&gt;&amp;nbsp;{id_hewan} berhasil dihapus.&quot;&lt;/span&gt;&lt;/div&gt;" style="shape=parallelogram;perimeter=parallelogramPerimeter;whiteSpace=wrap;html=1;fixedSize=1;fillColor=#FAD9D5;strokeColor=#D0CEE2;strokeWidth=2;align=center;verticalAlign=middle;fontFamily=Helvetica;fontSize=12;fontColor=#1A1A1A;labelBackgroundColor=none;" vertex="1" parent="1">
          <mxGeometry x="2330.03" y="1947" width="125.98" height="72" as="geometry" />
        </mxCell>
        <mxCell id="p29icvkrW7jEiB60gu-A-4" value="" style="endArrow=classic;html=1;rounded=0;" edge="1" parent="1">
          <mxGeometry width="50" height="50" relative="1" as="geometry">
            <mxPoint x="2930" y="1430" as="sourcePoint" />
            <mxPoint x="2980" y="1430" as="targetPoint" />
            <Array as="points">
              <mxPoint x="2930" y="1430" />
            </Array>
          </mxGeometry>
        </mxCell>
        <mxCell id="p29icvkrW7jEiB60gu-A-7" value="" style="endArrow=classic;html=1;rounded=0;" edge="1" parent="1">
          <mxGeometry width="50" height="50" relative="1" as="geometry">
            <mxPoint x="2426.25" y="2010" as="sourcePoint" />
            <mxPoint x="2452.5" y="2010" as="targetPoint" />
            <Array as="points">
              <mxPoint x="2416.25" y="2010" />
            </Array>
          </mxGeometry>
        </mxCell>
        <mxCell id="p29icvkrW7jEiB60gu-A-10" value="" style="endArrow=classic;html=1;rounded=0;" edge="1" parent="1">
          <mxGeometry width="50" height="50" relative="1" as="geometry">
            <mxPoint x="2668.78" y="2400" as="sourcePoint" />
            <mxPoint x="2695.03" y="2400" as="targetPoint" />
            <Array as="points">
              <mxPoint x="2658.78" y="2400" />
            </Array>
          </mxGeometry>
        </mxCell>
        <mxCell id="p29icvkrW7jEiB60gu-A-11" value="" style="endArrow=classic;html=1;rounded=0;" edge="1" parent="1">
          <mxGeometry width="50" height="50" relative="1" as="geometry">
            <mxPoint x="3171.25" y="2120" as="sourcePoint" />
            <mxPoint x="3197.5" y="2120" as="targetPoint" />
            <Array as="points">
              <mxPoint x="3161.25" y="2120" />
            </Array>
          </mxGeometry>
        </mxCell>
        <mxCell id="p29icvkrW7jEiB60gu-A-12" value="" style="endArrow=classic;html=1;rounded=0;" edge="1" parent="1">
          <mxGeometry width="50" height="50" relative="1" as="geometry">
            <mxPoint x="1990" y="840" as="sourcePoint" />
            <mxPoint x="2016.25" y="840" as="targetPoint" />
            <Array as="points">
              <mxPoint x="1980" y="840" />
            </Array>
          </mxGeometry>
        </mxCell>
      </root>
    </mxGraphModel>
  </diagram>
</mxfile>
